static optimization
version=1
nRows=10
nColumns=93
inDegrees=yes
endheader
time	glut_med1_r	glut_med2_r	glut_med3_r	glut_min1_r	glut_min2_r	glut_min3_r	semimem_r	semiten_r	bifemlh_r	bifemsh_r	sar_r	add_long_r	add_brev_r	add_mag1_r	add_mag2_r	add_mag3_r	tfl_r	pect_r	grac_r	glut_max1_r	glut_max2_r	glut_max3_r	iliacus_r	psoas_r	quad_fem_r	gem_r	peri_r	rect_fem_r	vas_med_r	vas_int_r	vas_lat_r	med_gas_r	lat_gas_r	soleus_r	tib_post_r	flex_dig_r	flex_hal_r	tib_ant_r	per_brev_r	per_long_r	per_tert_r	ext_dig_r	ext_hal_r	glut_med1_l	glut_med2_l	glut_med3_l	glut_min1_l	glut_min2_l	glut_min3_l	semimem_l	semiten_l	bifemlh_l	bifemsh_l	sar_l	add_long_l	add_brev_l	add_mag1_l	add_mag2_l	add_mag3_l	tfl_l	pect_l	grac_l	glut_max1_l	glut_max2_l	glut_max3_l	iliacus_l	psoas_l	quad_fem_l	gem_l	peri_l	rect_fem_l	vas_med_l	vas_int_l	vas_lat_l	med_gas_l	lat_gas_l	soleus_l	tib_post_l	flex_dig_l	flex_hal_l	tib_ant_l	per_brev_l	per_long_l	per_tert_l	ext_dig_l	ext_hal_l	ercspn_r	ercspn_l	intobl_r	intobl_l	extobl_r	extobl_l
0.876000	293.199716	157.476863	164.559114	39.847940	42.455652	42.743415	46.364535	4.312216	33.445862	0.000000	0.000000	0.000000	0.000000	0.000000	0.000000	0.000000	28.449706	0.000000	0.000000	19.655753	46.209763	0.000000	0.000000	0.000000	0.000000	0.000000	39.811800	0.000000	100.223805	117.461120	219.871059	0.000000	0.000000	555.599655	565.400244	4.045453	1.025993	57.557204	0.000000	0.000000	0.000000	7.730170	3.848218	9.664354	0.000000	0.000000	1.433917	0.000000	0.000000	0.000000	2.201097	0.000000	0.000000	0.000000	35.880301	20.514137	10.185187	7.969630	16.852769	0.000000	2.801703	1.826797	0.000000	0.000000	0.000000	40.597128	38.302946	0.000000	0.000000	0.000000	0.000000	17.783733	20.972304	36.554615	0.000000	0.000000	0.000000	0.000000	0.000000	0.000000	23.666771	2.800423	8.714452	1.456030	7.894594	0.421970	0.000000	358.698428	0.000000	23.552456	0.000000	2.601940
0.892000	277.040115	159.201492	166.567830	40.782998	41.743940	40.167275	39.696742	0.000000	23.004678	0.000000	1.612782	0.000000	0.000000	0.000000	0.000000	0.000000	35.037818	0.000000	0.000000	16.643840	38.355402	0.000000	0.000000	0.000000	0.000000	0.000000	39.069346	0.000000	64.228252	75.954092	138.508984	0.000000	2.012005	658.917555	536.948322	3.330981	0.626050	49.180051	0.000000	0.000000	0.000000	6.899146	3.460776	0.000000	0.000000	0.000000	0.000000	0.000000	0.000000	0.000000	0.000000	0.000000	0.000000	0.000000	32.721674	19.010415	10.775333	7.498354	9.485672	0.000000	2.677306	2.003828	0.000000	0.000000	0.000000	38.417750	38.543868	0.165970	0.000000	0.000000	11.374208	14.042511	16.567840	28.709369	0.000000	0.000000	0.000000	0.000000	0.000000	0.000000	18.543246	1.905775	5.609017	1.078623	6.352746	0.385078	0.000000	317.947640	0.000000	9.762649	0.000000	8.781810
0.908000	256.310967	153.509767	158.121545	39.280620	39.166843	36.594188	46.070029	0.643810	24.038924	0.000000	2.004051	0.000000	0.000000	0.000000	0.000000	0.000000	35.435169	0.000000	0.000000	13.352148	31.261715	0.000000	0.000000	0.000000	0.000000	0.000000	35.258735	0.000000	34.450456	41.011947	72.991264	0.000000	18.732779	762.744893	548.583589	3.434242	0.781522	51.082069	0.000000	0.000000	0.000000	6.953004	3.645019	0.000000	0.000000	0.000000	0.000000	0.000000	0.000000	0.000000	0.000000	0.000000	0.000000	0.049455	24.607190	14.056028	8.538510	5.128079	1.191127	0.000000	2.099668	1.595859	0.000000	0.000000	0.000000	32.933738	34.401704	5.898963	0.296117	0.000000	18.445022	10.571735	12.341272	21.469184	0.000000	0.000000	0.000000	0.000000	0.000000	0.000000	15.116932	1.294581	3.459192	0.826406	5.435657	0.373896	0.000000	285.280253	0.000000	0.688712	0.000000	17.097551
0.924000	245.419575	158.283213	167.153286	38.744129	38.998625	36.815929	46.568083	0.000000	22.250869	0.000000	3.323384	0.000000	0.000000	0.000000	0.000000	0.000000	36.832373	0.000000	0.000000	11.251626	26.805101	0.000000	0.000000	0.000000	0.000000	0.000000	38.067392	0.000000	9.539899	11.411500	19.893375	34.151938	34.974320	824.554448	516.120379	3.220651	0.866541	51.824572	0.000000	0.000000	0.000000	6.716270	3.730219	0.000000	0.000000	0.000000	0.000000	0.000000	0.000000	0.000000	0.000000	0.000000	0.000000	0.908111	10.954282	5.003463	3.001624	0.588272	0.000000	0.000000	1.063053	0.475385	0.000000	0.000000	0.000000	25.399727	27.558748	8.264377	1.143513	1.737096	23.859671	6.189166	7.099087	12.494386	0.000000	0.000000	0.000000	0.000000	0.000000	0.000000	13.625161	1.071924	2.697805	0.725514	5.156569	0.378357	3.528362	265.621221	3.538473	0.000000	0.000000	25.789754
0.940000	241.545510	164.150374	176.890188	39.603405	40.391875	38.604138	30.732011	0.000000	4.968867	16.437785	6.297813	0.000000	0.000000	0.000000	0.000000	0.000000	40.596620	0.000000	0.000000	8.900285	20.632737	0.000000	0.000000	0.000000	0.000000	0.000000	42.305242	0.000000	0.000000	0.000000	0.000000	152.836325	55.817148	793.837084	474.499459	3.126275	1.024113	54.763812	0.000000	0.000000	0.000000	6.657809	3.865436	0.000000	2.835469	17.464001	0.000000	0.705500	2.769166	0.000000	0.000000	0.000000	0.000000	2.001319	0.000000	0.000000	0.000000	0.000000	0.000000	2.321867	0.000000	0.000000	0.000000	0.000000	0.000000	22.251140	24.504290	2.197881	0.976071	8.970190	30.309272	0.734286	0.831717	1.479870	0.000000	0.000000	0.000000	0.000000	0.000000	0.000000	13.875194	1.217641	3.274940	0.760508	5.434900	0.394851	1.103351	248.759034	4.446055	0.000000	0.000000	28.882739
0.956000	233.793857	159.740267	171.613617	39.914030	40.848546	38.906230	15.517204	0.000000	0.000000	48.855691	9.136567	0.000000	0.000000	0.000000	0.000000	0.000000	42.455524	0.000000	0.000000	6.196255	13.377280	0.000000	0.000000	0.000000	0.000000	0.000000	42.310443	0.000000	0.000000	0.000000	0.000000	301.747554	84.867934	749.411637	480.141449	3.761730	1.581824	67.044450	0.000000	0.000000	0.000000	7.333432	4.459662	4.318836	20.633864	46.846704	1.765185	4.512706	8.997990	0.000000	0.000000	0.000000	17.761447	4.042376	0.000000	0.000000	0.000000	0.000000	0.000000	4.617189	0.000000	0.000000	0.572207	0.000000	0.000000	31.292229	34.701619	0.099527	1.535266	19.483866	31.239617	0.000000	0.000000	0.000000	0.000000	0.000000	0.000000	0.000000	0.000000	0.000000	15.470920	1.660351	4.947951	0.900789	6.125080	0.417872	1.133029	238.458006	3.421454	0.000000	0.000000	24.527740
0.972000	224.942188	157.986372	175.530924	39.035126	41.045313	39.878501	26.307644	0.000000	0.000000	83.014161	9.870755	0.000000	0.000000	0.000000	0.000000	0.000000	39.431030	0.000000	0.000000	4.568342	10.195547	0.000000	0.000000	0.000000	0.000000	0.000000	44.860666	0.000000	0.000000	0.000000	0.000000	445.559913	111.468347	733.078463	477.395783	4.235077	2.023595	79.083389	0.000000	0.000000	0.000000	7.759721	5.015359	10.674015	32.776758	71.941520	2.803517	6.957713	14.087342	0.000000	0.000000	0.000000	39.351005	6.254283	0.000000	0.000000	0.000000	0.000000	0.000000	6.674581	0.000000	0.000000	1.801676	0.000000	0.000000	43.902365	48.494210	0.000000	2.361628	30.537399	31.917137	0.000000	0.000000	0.000000	0.000000	0.000000	0.000000	0.000000	0.000000	0.000000	17.972770	2.322073	7.450318	1.115269	7.065550	0.438921	10.387725	241.266871	2.179380	0.000000	0.000000	15.357026
0.988000	212.432824	148.841684	168.629959	37.533405	40.471164	39.789113	34.551700	0.078188	8.546586	125.673302	10.788702	0.000000	0.000000	0.000000	0.000000	0.000000	35.639977	0.000000	0.000000	2.934246	6.391642	0.000000	0.000000	0.000000	0.000000	0.000000	44.483169	0.000000	0.000000	0.000000	0.000000	564.728971	132.658568	758.693022	499.477382	5.046231	2.648063	97.355733	0.000000	0.000000	0.000000	8.371982	5.897434	13.649030	39.908762	87.664490	3.467803	8.612386	17.561346	0.000000	0.000000	0.000000	59.844339	8.233105	0.000000	0.000000	0.000000	0.000000	0.000000	8.342391	0.000000	0.000000	2.186317	0.000000	0.000000	57.781688	63.126840	0.000000	3.031765	38.728159	32.081844	0.000000	0.000000	0.000000	0.000000	0.000000	0.000000	0.000000	0.000000	0.000000	21.058548	3.151558	10.593381	1.383919	8.133532	0.450672	27.926850	259.096763	1.829170	0.000000	0.000000	6.705123
1.004000	203.882379	136.083789	153.723324	37.134655	40.532012	39.876895	34.082677	3.774037	7.020163	175.801240	12.859615	0.000000	0.000000	0.000000	0.000000	0.000000	33.968548	0.000000	0.000000	1.536920	2.438438	0.000000	11.142456	31.397712	0.000000	0.000000	42.341021	0.000000	0.000000	0.000000	0.000000	621.108298	140.690270	834.217740	529.229942	5.858254	3.265977	118.410221	0.000000	0.000000	0.000000	8.714702	6.987463	14.957555	41.745451	92.043892	3.954595	9.554432	19.206214	0.000000	0.000000	0.000000	77.543312	9.833880	0.000000	0.000000	0.000000	0.000000	0.000000	9.535897	0.000000	0.000000	1.134631	0.000000	0.000000	72.681183	78.267919	0.000000	3.387229	42.461032	31.824954	0.000000	0.000000	0.000000	0.000000	0.000000	0.000000	0.000000	0.000000	0.000000	24.662424	4.139533	14.312623	1.703933	9.294572	0.451640	45.467366	284.272353	1.936873	0.000000	0.000000	2.531243
1.020000	214.977460	138.723552	158.586899	38.619803	43.320031	44.047833	46.062416	13.907050	22.872180	220.887543	13.512255	0.000000	0.000000	0.000000	0.000000	0.000000	31.072074	0.000000	0.000000	0.918909	1.213529	0.000000	66.048492	94.673463	0.000000	0.000000	45.422036	0.000000	0.000000	0.000000	0.000000	620.039747	136.442843	934.862205	514.529056	5.583274	3.189801	124.461681	0.000000	0.000000	0.000000	7.706791	7.534553	17.582130	39.429498	85.825256	4.528523	10.050982	19.363746	0.000000	0.000000	0.000000	92.117173	10.951802	0.000000	0.000000	0.000000	0.000000	0.000000	10.196574	0.000000	0.000000	0.000000	0.000000	0.000000	87.308061	92.585245	0.000000	3.311818	41.393554	30.514445	0.000000	0.000000	0.000000	0.000000	0.000000	0.000000	0.000000	0.000000	0.000000	28.605366	5.240378	18.392224	2.060076	10.538698	0.448231	52.318591	303.528599	1.049393	0.000000	0.000000	3.161353
